<?xml version="1.0" standalone="no"?>
<!DOCTYPE svg PUBLIC "-//W3C//DTD SVG 20010904//EN"
 "http://www.w3.org/TR/2001/REC-SVG-20010904/DTD/svg10.dtd">
<svg version="1.0" xmlns="http://www.w3.org/2000/svg"
 width="1520.000000pt" height="1520.000000pt" viewBox="0 0 1520.000000 1520.000000"
 preserveAspectRatio="xMidYMid meet">
<metadata>
Created by potrace 1.14, written by Peter Selinger 2001-2017
</metadata>
<g transform="translate(0.000000,1520.000000) scale(0.100000,-0.100000)"
fill="#000000" stroke="none">
<path d="M7104 12332 c-12 -2 -29 -19 -41 -40 -11 -20 -29 -53 -40 -72 -11
-19 -60 -105 -108 -190 -48 -85 -135 -238 -193 -340 -58 -102 -113 -198 -122
-215 -9 -16 -75 -131 -145 -255 -70 -124 -139 -245 -153 -270 -14 -25 -50 -88
-80 -140 -30 -52 -64 -113 -75 -135 -11 -22 -22 -42 -26 -45 -3 -3 -11 -14
-17 -25 -53 -98 -128 -232 -184 -330 -13 -22 -33 -58 -46 -80 -12 -22 -45 -80
-72 -129 l-51 -89 26 -46 c15 -25 37 -63 50 -84 13 -21 22 -41 19 -45 -2 -4
-53 -7 -113 -7 l-108 0 -48 -79 c-26 -43 -61 -102 -77 -130 -16 -29 -111 -194
-211 -367 -100 -173 -197 -342 -216 -377 l-34 -62 30 -50 c17 -28 31 -53 31
-56 0 -3 16 -30 35 -60 19 -30 35 -59 35 -65 0 -6 -45 -9 -122 -9 -68 1 -130
1 -139 1 -14 -1 -61 -74 -167 -261 -14 -25 -44 -76 -67 -115 -22 -38 -44 -77
-48 -85 -4 -8 -17 -31 -28 -50 -37 -60 -212 -364 -228 -395 -9 -16 -19 -31
-23 -33 -5 -2 -8 -7 -8 -11 0 -5 -55 -102 -121 -217 -67 -115 -131 -225 -141
-244 -11 -19 -44 -76 -74 -127 -30 -51 -54 -94 -54 -96 0 -3 -19 -36 -42 -73
-40 -66 -169 -290 -416 -719 -63 -110 -145 -252 -182 -315 -37 -63 -77 -132
-89 -152 -31 -57 -52 -93 -116 -203 -175 -302 -240 -415 -268 -465 -16 -30
-45 -79 -63 -108 -19 -29 -34 -54 -34 -57 0 -2 -22 -42 -49 -87 -43 -73 -132
-228 -181 -313 -26 -46 -161 -279 -225 -390 -144 -249 -165 -286 -165 -298 0
-7 16 -38 34 -69 19 -31 46 -76 59 -100 14 -24 90 -155 169 -293 79 -137 182
-316 229 -396 60 -105 91 -149 109 -156 24 -9 2572 -8 2596 1 6 2 44 61 84
131 l73 126 16 -28 c9 -15 43 -74 76 -131 l59 -102 587 0 587 0 67 118 c37 64
69 118 70 120 2 2 26 -36 55 -85 29 -48 64 -105 77 -125 l25 -36 666 2 c408 2
672 -1 680 -7 6 -5 12 -6 12 -1 0 5 909 10 2091 11 1150 2 2095 5 2100 9 5 3
18 22 29 42 11 20 25 44 30 52 8 12 137 237 213 370 11 19 61 107 112 195 51
88 118 204 149 258 l56 98 -18 27 c-11 15 -34 54 -52 87 -65 117 -84 151 -145
260 -35 61 -75 133 -90 160 -15 28 -43 76 -61 108 -19 32 -34 60 -34 62 0 9
-174 311 -185 320 -6 6 -44 64 -84 130 -39 66 -76 127 -81 135 -28 45 -267
437 -275 452 -26 44 -71 119 -184 305 l-122 202 -149 3 -149 3 78 134 78 135
-32 55 c-92 161 -229 399 -243 421 -9 14 -17 28 -17 32 0 4 -6 13 -12 20 -7 6
-13 16 -13 21 0 4 -14 28 -30 52 -16 24 -30 46 -30 48 0 2 -39 71 -86 153 -48
82 -94 163 -104 179 l-17 30 -137 1 c-75 1 -139 3 -141 6 -3 2 20 46 49 96 30
51 57 101 61 111 5 17 -43 123 -75 166 -5 6 -18 28 -30 49 -12 22 -77 137
-145 256 -68 119 -132 233 -143 252 -11 19 -149 261 -307 539 -158 277 -295
518 -304 534 -9 17 -18 32 -21 35 -3 3 -13 21 -22 40 -19 37 -52 95 -99 173
-16 26 -29 49 -29 52 0 3 -18 34 -40 70 -22 36 -40 67 -40 68 0 2 -38 69 -83
149 -46 80 -87 151 -90 159 -4 8 -15 28 -25 44 -10 17 -34 57 -52 90 -18 33
-44 77 -57 97 -12 21 -23 41 -23 45 0 4 -11 23 -24 42 -19 30 -104 178 -305
534 -11 20 -31 54 -43 75 -59 102 -138 246 -138 250 0 3 -6 13 -14 21 -7 9
-31 50 -53 91 -21 41 -124 221 -227 400 -104 179 -200 345 -214 370 -14 25
-36 62 -49 82 -12 21 -23 40 -23 42 0 3 -16 32 -36 65 -32 54 -40 61 -68 62
-133 2 -1105 3 -1122 1z m673 -3247 c50 -88 100 -177 112 -197 41 -73 64 -114
121 -213 32 -55 67 -118 79 -139 12 -21 66 -116 120 -210 54 -94 111 -196 128
-226 17 -30 129 -228 251 -440 121 -212 218 -387 217 -389 -2 -1 -62 -3 -134
-3 -110 0 -130 -3 -135 -17 -11 -30 -123 -215 -132 -218 -5 -2 -24 23 -42 54
-17 32 -47 85 -66 118 l-34 60 -147 2 c-80 0 -148 3 -150 5 -2 1 28 56 66 121
38 65 69 124 69 130 0 7 -10 27 -21 46 -19 32 -265 458 -311 540 -11 19 -59
102 -107 185 -49 83 -90 156 -92 161 -3 6 -14 26 -27 46 l-22 35 -140 -1 c-77
0 -140 3 -140 7 0 12 42 78 49 78 4 0 8 6 8 13 0 8 16 41 36 74 21 33 37 67
37 74 0 8 -20 49 -45 93 -25 43 -45 82 -45 86 0 5 46 8 103 8 56 0 107 1 114
1 6 1 49 66 94 146 46 80 86 142 89 137 4 -4 48 -79 97 -167z m-1517 -2420
c29 -49 60 -103 70 -120 l17 -30 151 -5 151 -5 -69 -120 c-39 -66 -70 -127
-70 -135 0 -8 9 -26 20 -40 11 -14 20 -28 20 -32 0 -4 20 -40 44 -80 25 -40
46 -79 48 -87 2 -11 -24 -14 -142 -14 l-145 0 -69 -121 c-39 -67 -151 -260
-250 -431 -98 -170 -188 -326 -198 -345 -10 -19 -29 -53 -42 -75 l-24 -40 28
-50 c15 -27 46 -82 69 -121 22 -39 41 -74 41 -78 0 -4 -39 -6 -87 -6 -194 4
-200 3 -215 -27 -8 -16 -40 -72 -72 -126 -52 -88 -59 -97 -71 -80 -11 17 -35
57 -106 183 l-31 56 -144 -1 c-79 0 -144 1 -144 3 0 4 135 240 160 282 14 21
103 177 132 230 14 25 80 139 147 254 66 115 121 213 121 217 0 5 5 9 10 9 6
0 10 4 10 9 0 8 73 137 209 371 14 25 55 96 91 158 36 62 70 120 75 130 6 9
55 95 109 190 55 94 100 171 102 169 1 -1 26 -42 54 -92z m3626 -1222 c15 -27
33 -57 39 -68 6 -11 25 -45 43 -75 l31 -55 151 0 c82 0 150 0 150 -2 0 -1 -36
-63 -79 -139 l-80 -137 23 -36 c12 -20 26 -43 29 -51 4 -8 23 -40 42 -70 19
-30 33 -55 32 -57 -2 -1 -519 -4 -1150 -7 l-1147 -4 27 46 c15 26 37 63 48 82
12 19 31 53 43 76 l21 41 -60 104 c-33 57 -67 115 -74 129 l-13 25 144 0 c79
-1 148 2 153 5 10 7 111 178 111 189 0 4 8 16 19 25 18 16 21 13 87 -101 l69
-118 587 0 587 0 63 110 c35 60 64 116 66 123 5 18 8 16 38 -35z m-2314 -1540
c25 -43 56 -95 68 -115 12 -21 20 -38 17 -38 -2 0 -29 42 -59 93 -64 106 -80
137 -75 137 2 0 25 -35 49 -77z"/>
</g>
</svg>
